<?xml version="1.0" encoding="utf-8"?>
<!-- Generator: Adobe Illustrator 15.0.0, SVG Export Plug-In . SVG Version: 6.00 Build 0)  -->
<!DOCTYPE svg PUBLIC "-//W3C//DTD SVG 1.1//EN" "http://www.w3.org/Graphics/SVG/1.1/DTD/svg11.dtd">
<svg version="1.1" id="Layer_1" xmlns="http://www.w3.org/2000/svg" xmlns:xlink="http://www.w3.org/1999/xlink" x="0px" y="0px"
	 width="518.301px" height="125.328px" viewBox="0 0 518.301 125.328" enable-background="new 0 0 518.301 125.328"
	 xml:space="preserve">
<path d="M38.157,125.268v-4.54h-10.06V4.6h10.06V0.06H0V4.6h10.06v116.127H0v4.54H38.157z"/>
<path d="M103.844,89.243c1.968,7.963,4.584,14.539,7.849,19.725c3.263,5.187,6.957,9.21,11.08,12.07
	c4.122,2.86,8.404,4.29,12.846,4.29s8.724-1.43,12.846-4.29c4.122-2.86,7.815-6.883,11.08-12.07
	c3.264-5.186,5.881-11.762,7.849-19.725c1.969-7.962,2.953-16.682,2.953-26.159c0-7.625-0.64-14.817-1.918-21.575
	c-1.279-6.756-3.028-12.63-5.25-17.622c-2.221-4.99-4.795-9.308-7.723-12.953c-2.928-3.645-6.091-6.378-9.49-8.201
	C142.567,0.912,139.118,0,135.619,0c-3.5,0-6.949,0.912-10.348,2.733c-3.399,1.823-6.562,4.557-9.49,8.201
	c-2.928,3.646-5.502,7.963-7.723,12.953c-2.221,4.992-3.971,10.865-5.25,17.622c-1.279,6.758-1.918,13.95-1.918,21.575
	C100.891,72.562,101.875,81.281,103.844,89.243z M121.863,19.388c3.988-10.009,8.373-15.014,15.676-15.014
	c7.302,0,11.987,5.005,15.975,15.014c3.987,10.01,5.981,24.575,5.981,43.697c0,19.065-1.986,33.477-5.957,43.233
	c-3.971,9.757-8.664,14.636-16,14.636c-7.336,0-11.731-4.878-15.701-14.636c-3.971-9.757-6.622-24.168-6.622-43.233
	C115.215,43.963,117.875,29.397,121.863,19.388z"/>
<path d="M193.052,125.268v-4.54h-10.688V20.663l37.925,104.577h9.439V4.6h10.688V0.06h-24.73V4.6h10.688v83.217L194.351,0.06
	h-28.563V4.6h10.688v116.127h-10.688v4.54H193.052z"/>
<path d="M331.054,125.268l1.23-47.149h-3.354c-0.419,6.229-1.074,11.7-1.965,16.415s-2.332,9.43-4.322,14.145
	c-1.886,4.424-4.122,7.539-6.707,9.342c-2.585,1.805-5.659,2.707-9.221,2.707h-15.614V4.6h10.06V0.06h-38.157V4.6h10.06v116.127
	h-10.06v4.54H331.054z"/>
<path d="M373.04,125.268v-4.54h-10.06V4.6h10.06V0.06h-38.157V4.6h10.06v116.127h-10.06v4.54H373.04z"/>
<path d="M415.387,125.268v-4.54h-10.06V62.052h9.012c3.702,0,6.671,3.086,8.907,9.255c0.768,2.154,1.432,5.298,1.991,9.43
	c0.559,4.134,0.838,7.072,0.838,8.818h2.724V30.008h-2.724c0,1.746-0.28,4.687-0.838,8.819c-0.559,4.134-1.223,7.277-1.991,9.43
	c-2.235,6.171-5.205,9.255-8.907,9.255h-9.012V4.6h17.786c5.402,0,9.665,3.348,12.787,10.041c2.631,5.647,4.543,14.058,5.736,25.233
	h2.725L443.208,0.06h-65.979V4.6h10.06v116.127h-10.06v4.54H415.387z"/>
<path d="M517.986,125.268l0.315-39.029h-2.724c-0.561,5.064-1.174,9.168-1.839,12.312c-0.666,3.143-1.839,6.607-3.52,10.39
	c-3.433,7.858-9.053,11.788-16.863,11.788h-17.703V62.052h9.745c3.492,0,6.462,3.086,8.907,9.255
	c0.768,1.979,1.432,4.745,1.991,8.295c0.558,3.551,0.838,6.142,0.838,7.771h2.725V32.017h-2.725c0,1.63-0.28,4.221-0.838,7.771
	c-0.559,3.551-1.223,6.316-1.991,8.294c-2.48,6.287-5.449,9.43-8.907,9.43h-9.745V4.6h18.945c5.403,0,9.402,3.027,11.999,9.081
	c1.017,2.329,1.867,4.802,2.552,7.422c0.685,2.619,1.149,4.657,1.395,6.112c0.246,1.456,0.508,3.348,0.789,5.675h2.725l-0.524-32.83
	h-65.979V4.6h10.06v116.127h-10.06v4.54H517.986z"/>
<path d="M39.576,89.243c1.968,7.963,4.584,14.539,7.849,19.725c3.264,5.187,6.957,9.21,11.08,12.07
	c4.122,2.86,8.404,4.29,12.846,4.29c10.163,0,23.017,0,23.017,0h2.221V85.71h-2.221c-1.457,9.981-6.561,35.243-21.577,35.243
	c-7.336,0-10.917-4.878-14.887-14.636c-3.971-9.757-6.724-24.168-6.724-43.233c0-19.122,2.762-33.687,6.75-43.697
	C61.917,9.378,65.488,4.374,72.791,4.374c14.281,0,19.274,35.243,19.274,35.243h2.221V0h-2.221c0,0-10.551,0-20.714,0
	c-3.5,0-6.949,0.912-10.348,2.733c-3.399,1.823-6.562,4.557-9.49,8.201c-2.928,3.646-5.502,7.963-7.723,12.953
	c-2.221,4.992-3.971,10.865-5.25,17.622c-1.279,6.758-1.918,13.95-1.918,21.575C36.623,72.562,37.607,81.281,39.576,89.243z"/>
</svg>
